<?xml version="1.0" encoding="UTF-8"?>
<!DOCTYPE svg PUBLIC "-//W3C//DTD SVG 1.1//EN" "http://www.w3.org/Graphics/SVG/1.1/DTD/svg11.dtd">
<svg xmlns="http://www.w3.org/2000/svg" version="1.1" width="707px" height="311px" style="shape-rendering:geometricPrecision; text-rendering:geometricPrecision; image-rendering:optimizeQuality; fill-rule:evenodd; clip-rule:evenodd" xmlns:xlink="http://www.w3.org/1999/xlink">
<g><path style="opacity:0.945" fill="#fdfefd" d="M 34.5,32.5 C 59.1689,32.3334 83.8356,32.5 108.5,33C 111.196,33.6898 113.363,35.1898 115,37.5C 116.485,85.1068 116.985,132.773 116.5,180.5C 150.5,180.5 184.5,180.5 218.5,180.5C 218.333,134.499 218.5,88.4988 219,42.5C 219.272,37.5623 221.772,34.3956 226.5,33C 280.5,32.3333 334.5,32.3333 388.5,33C 405.475,34.1555 421.142,39.1555 435.5,48C 446.809,57.312 453.975,69.1454 457,83.5C 457.047,68.0993 457.714,52.766 459,37.5C 460.637,35.1898 462.804,33.6898 465.5,33C 501.321,33.8693 534.321,43.8693 564.5,63C 573.267,69.7632 581.433,77.2632 589,85.5C 589.333,70.5 589.667,55.5 590,40.5C 590.69,37.804 592.19,35.6374 594.5,34C 607.767,32.8602 621.101,32.3602 634.5,32.5C 646.833,32.6667 659.167,32.8333 671.5,33C 676.228,34.3956 678.728,37.5623 679,42.5C 679.667,113.5 679.667,184.5 679,255.5C 678.332,259.499 676.165,262.332 672.5,264C 659.72,265.128 646.886,265.628 634,265.5C 622.5,265.333 611,265.167 599.5,265C 595.035,264.687 591.868,262.521 590,258.5C 583.551,232.399 569.551,211.399 548,195.5C 547.667,215.833 547.333,236.167 547,256.5C 545.308,261.522 541.808,264.355 536.5,265C 512.45,265.96 488.45,265.627 464.5,264C 461,263.167 458.833,261 458,257.5C 457.667,250.167 457.333,242.833 457,235.5C 446.055,249.228 431.889,257.728 414.5,261C 407.898,262.434 401.232,263.434 394.5,264C 305.993,265.125 217.493,265.625 129,265.5C 98.5,265.333 68,265.167 37.5,265C 33.0346,264.687 29.8679,262.521 28,258.5C 26.343,186.557 26.0097,114.557 27,42.5C 27.4713,37.5422 29.9713,34.2089 34.5,32.5 Z M 313.5,104.5 C 326.837,104.333 340.171,104.5 353.5,105C 355.91,105.758 356.91,107.425 356.5,110C 356.646,112.034 355.98,113.701 354.5,115C 340.837,115.5 327.171,115.667 313.5,115.5C 313.5,111.833 313.5,108.167 313.5,104.5 Z M 456.5,115.5 C 457.662,131.661 457.828,147.995 457,164.5C 450.775,156.801 443.275,150.635 434.5,146C 445.921,138.751 453.254,128.585 456.5,115.5 Z M 313.5,183.5 C 328.837,183.333 344.17,183.5 359.5,184C 364.473,184.491 367.807,186.991 369.5,191.5C 369.144,194.688 367.477,196.855 364.5,198C 360.326,199.763 355.993,200.929 351.5,201.5C 338.883,200.519 326.217,200.186 313.5,200.5C 313.5,194.833 313.5,189.167 313.5,183.5 Z"/></g>
<g><path style="opacity:1" fill="#3fcc95" d="M 37.5,43.5 C 60.1667,43.5 82.8333,43.5 105.5,43.5C 105.168,93.0028 105.501,142.336 106.5,191.5C 144.5,191.5 182.5,191.5 220.5,191.5C 220.5,212.5 220.5,233.5 220.5,254.5C 159.5,254.5 98.5,254.5 37.5,254.5C 37.5,184.167 37.5,113.833 37.5,43.5 Z"/></g>
<g><path style="opacity:1" fill="#7fd9b3" d="M 37.5,43.5 C 60.3273,42.5025 83.3273,42.1692 106.5,42.5C 106.5,92.1667 106.5,141.833 106.5,191.5C 105.501,142.336 105.168,93.0028 105.5,43.5C 82.8333,43.5 60.1667,43.5 37.5,43.5 Z"/></g>
<g><path style="opacity:1" fill="#3fcc96" d="M 229.5,42.5 C 284.181,42.0823 338.847,42.5823 393.5,44C 434.177,49.0088 452.01,71.8422 447,112.5C 443.481,125.352 435.648,134.519 423.5,140C 417.947,142.61 412.281,144.943 406.5,147C 422.898,149.946 436.731,157.446 448,169.5C 454.299,177.766 457.465,187.099 457.5,197.5C 457.075,225.767 443.075,243.267 415.5,250C 406.935,251.983 398.268,253.316 389.5,254C 336.168,254.5 282.834,254.667 229.5,254.5C 229.5,183.833 229.5,113.167 229.5,42.5 Z M 313.5,104.5 C 313.5,108.167 313.5,111.833 313.5,115.5C 327.171,115.667 340.837,115.5 354.5,115C 355.98,113.701 356.646,112.034 356.5,110C 356.91,107.425 355.91,105.758 353.5,105C 340.171,104.5 326.837,104.333 313.5,104.5 Z M 313.5,183.5 C 313.5,189.167 313.5,194.833 313.5,200.5C 326.217,200.186 338.883,200.519 351.5,201.5C 355.993,200.929 360.326,199.763 364.5,198C 367.477,196.855 369.144,194.688 369.5,191.5C 367.807,186.991 364.473,184.491 359.5,184C 344.17,183.5 328.837,183.333 313.5,183.5 Z"/></g>
<g><path style="opacity:1" fill="#7fd9b3" d="M 471.5,43.5 C 470.5,43.5 469.5,43.5 468.5,43.5C 468.5,113.833 468.5,184.167 468.5,254.5C 467.501,184.002 467.167,113.335 467.5,42.5C 469.099,42.2322 470.432,42.5655 471.5,43.5 Z"/></g>
<g><path style="opacity:1" fill="#3fcc96" d="M 471.5,43.5 C 505.778,45.322 536.778,56.1553 564.5,76C 578.838,88.1872 590.171,102.687 598.5,119.5C 598.783,120.289 599.283,120.956 600,121.5C 600.5,95.5021 600.667,69.5021 600.5,43.5C 623.167,43.5 645.833,43.5 668.5,43.5C 668.5,113.833 668.5,184.167 668.5,254.5C 645.49,254.833 622.49,254.5 599.5,253.5C 589.842,218.513 568.842,192.846 536.5,176.5C 536.5,202.5 536.5,228.5 536.5,254.5C 513.833,254.5 491.167,254.5 468.5,254.5C 468.5,184.167 468.5,113.833 468.5,43.5C 469.5,43.5 470.5,43.5 471.5,43.5 Z"/></g>
<g><path style="opacity:1" fill="#7fd9b3" d="M 668.5,43.5 C 645.833,43.5 623.167,43.5 600.5,43.5C 600.667,69.5021 600.5,95.5021 600,121.5C 599.283,120.956 598.783,120.289 598.5,119.5C 599.498,94.0054 599.831,68.3388 599.5,42.5C 622.673,42.1692 645.673,42.5025 668.5,43.5 Z"/></g>
<g><path style="opacity:0.958" fill="#fdfefd" d="M 302.5,94.5 C 320.503,94.3334 338.503,94.5001 356.5,95C 368.038,100.721 370.538,109.221 364,120.5C 361.559,122.969 358.726,124.802 355.5,126C 337.836,126.5 320.17,126.667 302.5,126.5C 302.5,115.833 302.5,105.167 302.5,94.5 Z M 313.5,104.5 C 313.5,108.167 313.5,111.833 313.5,115.5C 327.171,115.667 340.837,115.5 354.5,115C 355.98,113.701 356.646,112.034 356.5,110C 356.91,107.425 355.91,105.758 353.5,105C 340.171,104.5 326.837,104.333 313.5,104.5 Z"/></g>
<g><path style="opacity:0.941" fill="#fdfefd" d="M 302.5,172.5 C 322.213,172.062 341.88,172.562 361.5,174C 377.477,176.905 382.644,185.738 377,200.5C 373.464,205.02 368.964,208.186 363.5,210C 343.212,211.44 322.879,211.94 302.5,211.5C 302.5,198.5 302.5,185.5 302.5,172.5 Z M 313.5,183.5 C 313.5,189.167 313.5,194.833 313.5,200.5C 326.217,200.186 338.883,200.519 351.5,201.5C 355.993,200.929 360.326,199.763 364.5,198C 367.477,196.855 369.144,194.688 369.5,191.5C 367.807,186.991 364.473,184.491 359.5,184C 344.17,183.5 328.837,183.333 313.5,183.5 Z"/></g>
</svg>
